<svg xmlns="http://www.w3.org/2000/svg" xmlns:xlink="http://www.w3.org/1999/xlink" fill="none" version="1.1" width="29.9990234375" height="20.625" viewBox="0 0 29.9990234375 20.625"><g><g transform="matrix(1,0,0,-1,0,23.666339874267578)"><g><path d="M14.3764,23.19695167541504C14.1395,22.92845167541504,13.8714,22.606251675415038,13.7904,22.48545167541504C13.7031,22.36465167541504,13.4786,22.14315167541504,13.2916,21.98883167541504C12.8489,21.62640167541504,12.107,20.854571675415038,12.1382,20.78745167541504C12.1569,20.76060167541504,12.132,20.727041675415038,12.0883,20.70691167541504C12.0384,20.68678167541504,11.7517,20.29079167541504,11.4524,19.82098167541504C11.1469,19.35116167541504,10.8352,18.92162167541504,10.7541,18.86793167541504C10.6793,18.814231675415037,10.6294,18.74041167541504,10.6481,18.706851675415038C10.6668,18.67329167541504,10.6544,18.65315167541504,10.6232,18.659861675415037C10.592,18.67329167541504,10.4424,18.55919167541504,10.2928,18.411541675415037C10.1431,18.26388167541504,9.91869,18.075961675415037,9.794,18.00213167541504C9.794,18.00213167541504,9.57579,17.86118167541504,9.57579,17.86118167541504C9.57579,17.86118167541504,9.10196,18.23703167541504,9.10196,18.23703167541504C8.84635,18.44509167541504,8.39122,18.84779167541504,8.08573,19.13639167541504C7.78647,19.418281675415038,7.50592,19.653191675415037,7.45604,19.653191675415037C7.26277,19.653191675415037,7.03833,19.47197167541504,6.91987,19.23035167541504C6.85129,19.082701675415038,6.51462,18.66658167541504,6.16549,18.30415167541504C5.38617,17.492041675415038,5.3737,17.478621675415038,4.98092,17.22358167541504C4.80012,17.10277167541504,4.58814,16.95511167541504,4.50709,16.88800167541504C4.42604,16.820881675415038,4.31382,16.767191675415038,4.25148,16.767191675415038C4.07691,16.767191675415038,3.64049,16.38463167541504,3.52827,16.12958167541504C3.47215,16.00206167541504,3.31006,15.79400167541504,3.16666,15.673191675415039C2.78635,15.35104167541504,2.6866,15.263791675415039,2.59932,15.176531675415038C2.54944,15.129551675415039,2.48709,15.08928167541504,2.44969,15.08928167541504C2.41228,15.08928167541504,2.38111,15.05573167541504,2.38111,15.01546167541504C2.38111,14.981901675415038,2.35617,14.961761675415039,2.325,14.981901675415038C2.29382,15.008741675415038,2.25642,15.00203167541504,2.24395,14.97519167541504C2.23771,14.941631675415039,2.08808,14.84767167541504,1.92598,14.753701675415039C1.63296,14.592621675415039,0.947158,13.934881675415038,0.947158,13.81408167541504C0.947158,13.78052167541504,0.90975,13.713401675415039,0.872343,13.66642167541504C0.785059,13.572461675415038,0.697775,13.43822167541504,0.255121,12.740217675415039C-0.0753104,12.23013367541504,-0.081545,12.035497175415038,0.217714,12.095901775415038C0.329936,12.116036675415039,0.641664,12.136171675415039,0.922219,12.14288267541504C1.40228,12.156306675415038,1.44592,12.16972967541504,1.76389,12.418059675415039C1.95092,12.559003675415038,2.27512,12.76706367541504,2.48086,12.88116167541504C2.71154,13.00197067541504,2.95469,13.196611675415038,3.07314,13.357691675415039C3.1916,13.505341675415039,3.34123,13.699981675415039,3.40981,13.79394167541504C3.47839,13.881191675415039,3.57814,13.96173167541504,3.62802,13.96844167541504C3.6779,13.98187167541504,3.76518,14.01542167541504,3.81506,14.048981675415039C3.93975,14.13623167541504,4.33876,14.68659167541504,4.27641,14.68659167541504C4.2016,14.68659167541504,4.63802,15.01546167541504,4.8687,15.129551675415039C4.98092,15.18325167541504,5.11184,15.21680167541504,5.16172,15.19667167541504C5.20536,15.176531675415038,5.3737,15.21009167541504,5.5358,15.270501675415039C5.89117,15.39802167541504,6.60814,16.10274167541504,6.87623,16.59269167541504C6.98221,16.780611675415038,7.16302,17.00881167541504,7.28147,17.10277167541504C7.52462,17.297411675415038,7.68048,17.60614167541504,7.68048,17.908161675415037C7.68048,18.14307167541504,7.774,18.37798167541504,7.87376,18.37798167541504C7.91116,18.37798167541504,7.98598,18.31757167541504,8.04209,18.24375167541504C8.21666,18.022261675415038,9.12067,17.310831675415038,9.46357,17.129621675415038C9.85011,16.92827167541504,10.0683,16.69336167541504,10.0995,16.45174167541504C10.1431,16.07589167541504,10.4362,15.538961675415038,10.8414,15.08928167541504C11.0659,14.83424167541504,11.2841,14.639601675415038,11.3152,14.66645167541504C11.3526,14.68659167541504,11.3589,14.67987167541504,11.3402,14.639601675415038C11.2841,14.53893167541504,11.9636,13.854351675415039,12.3876,13.585881675415038C12.5933,13.45836167541504,13.0173,13.12278167541504,13.3228,12.847603675415039C14.0023,12.236845675415038,14.4263,11.975092575415038,14.6383,12.02878555541504C14.8565,12.08919017541504,14.8253,12.20999967541504,14.4762,12.61269667541504C14.3078,12.80733367541504,14.1644,13.015393675415039,14.1644,13.06909167541504C14.1644,13.24359167541504,14.6196,14.14966167541504,14.7131,14.14966167541504C14.8752,14.14966167541504,15.1744,14.431541675415039,15.2679,14.673161675415038C15.3989,15.01546167541504,15.4176,15.122841675415039,15.455,15.76045167541504C15.4862,16.330931675415037,15.5423,16.49872167541504,15.6981,16.49872167541504C15.748,16.49872167541504,15.854,16.612821675415038,15.935,16.75376167541504C16.0784,17.00210167541504,16.4089,17.297411675415038,16.4089,17.18331167541504C16.4089,17.14975167541504,16.6458,16.86786167541504,16.9326,16.56584167541504C17.2381,16.24368167541504,17.5062,15.887971675415038,17.5685,15.73360167541504C17.6308,15.57923167541504,17.7368,15.310771675415038,17.8116,15.122841675415039C17.8865,14.941631675415039,17.9675,14.72014167541504,17.9924,14.639601675415038C18.0174,14.55235167541504,18.0673,14.48524167541504,18.0984,14.48524167541504C18.1358,14.48524167541504,18.1483,14.45839167541504,18.1296,14.424831675415039C18.086,14.35101167541504,18.4413,13.753671675415038,18.566,13.699981675415039C18.6159,13.67984167541504,18.7032,13.706691675415039,18.7531,13.753671675415038C18.8279,13.84092167541504,18.8216,13.887901675415039,18.7157,14.102671675415039C18.6471,14.243621675415039,18.5037,14.592621675415039,18.4039,14.87451167541504C17.9987,16.03562167541504,17.8366,16.39805167541504,17.5934,16.639671675415038C17.3316,16.90142167541504,16.97,17.47191167541504,16.97,17.62628167541504C16.97,17.686681675415038,17.051,17.659841675415038,17.2381,17.53903167541504C17.3815,17.43835167541504,17.6433,17.29069167541504,17.8179,17.20344167541504C18.1857,17.02223167541504,18.9276,16.37791167541504,19.3454,15.874541675415038C19.6571,15.498691675415039,20.0187,14.740281675415039,20.1745,14.14966167541504C20.3803,13.350971675415039,21.0224,12.27040367541504,21.2344,12.35765467541504C21.3778,12.418059675415039,21.3279,12.68652467541504,21.0723,13.27715167541504C20.8603,13.77381167541504,20.7294,14.263751675415039,20.7606,14.438261675415038C20.7793,14.53222167541504,20.8354,14.50537167541504,21.116,14.270471675415038C21.2968,14.116101675415038,21.4838,13.928171675415038,21.5212,13.84763167541504C21.5649,13.767091675415038,21.7207,13.61273167541504,21.8766,13.505341675415039C22.0324,13.397951675415039,22.2008,13.25030167541504,22.2444,13.169761675415039C22.3442,13.00868267541504,22.9427,12.67981267541504,23.1983,12.63954267541504C23.3791,12.61940867541504,23.641,12.760352675415039,23.641,12.87444967541504C23.641,12.98183567541504,23.3791,13.203321675415038,23.1921,13.24359167541504C23.0923,13.27043167541504,22.9489,13.357691675415039,22.8741,13.431511675415038C22.7931,13.512051675415039,22.5936,13.706691675415039,22.4252,13.867771675415039C21.9078,14.35101167541504,21.7082,14.579201675415039,21.6023,14.787261675415039C21.4651,15.07586167541504,21.3404,15.18325167541504,21.0037,15.324191675415038C20.7918,15.41144167541504,20.5798,15.59265167541504,20.2556,15.95508167541504C19.6384,16.65309167541504,19.2768,17.03565167541504,19.0586,17.237001675415037C18.7842,17.478621675415038,18.4725,17.70682167541504,18.4039,17.70682167541504C18.3665,17.70682167541504,18.3416,17.73366167541504,18.3416,17.767221675415037C18.3416,17.80078167541504,18.1982,17.88803167541504,18.0236,17.96857167541504C17.8491,18.04911167541504,17.5436,18.284011675415037,17.3378,18.48536167541504C17.1383,18.68671167541504,16.9513,18.84779167541504,16.9263,18.84779167541504C16.8952,18.85450167541504,16.7767,18.86793167541504,16.652,18.888061675415038C16.4276,18.92162167541504,16.4089,18.90820167541504,16.0597,18.43167167541504C15.5547,17.76051167541504,15.3178,17.52560167541504,15.1058,17.47191167541504C14.9375,17.43164167541504,14.7442,17.24371167541504,14.3265,16.70007167541504C14.2642,16.612821675415038,14.1457,16.40476167541504,14.0647,16.236971675415038C13.8776,15.847701675415038,13.728,15.653061675415039,13.5534,15.599371675415039C13.4849,15.57252167541504,13.3352,15.465131675415039,13.2355,15.36446167541504C13.1295,15.25707167541504,12.9612,15.136271675415038,12.8552,15.08928167541504C12.7554,15.04230167541504,12.6681,14.981901675415038,12.6681,14.948341675415039C12.6681,14.82082167541504,12.425,14.894651675415039,12.2379,15.08257167541504C12.001,15.324191675415038,11.9948,15.37788167541504,12.2192,15.465131675415039C12.3377,15.512111675415039,12.4499,15.666481675415039,12.6183,16.00878167541504C12.8302,16.458451675415038,13.0609,17.16317167541504,13.0297,17.28398167541504C13.0048,17.42493167541504,13.1295,18.297441675415037,13.2043,18.44509167541504C13.2479,18.539061675415038,13.3664,18.71356167541504,13.4724,18.83437167541504C13.6781,19.069271675415038,13.8652,19.41157167541504,13.8402,19.498821675415037C13.834,19.52567167541504,13.8465,19.70688167541504,13.8714,19.88809167541504C13.9088,20.15656167541504,13.9712,20.284081675415038,14.1707,20.518991675415037C14.4263,20.814301675415038,14.632,21.22371167541504,14.5697,21.32438167541504C14.551,21.35794167541504,14.632,21.53244167541504,14.7442,21.71366167541504C14.8565,21.89487167541504,14.9874,22.13645167541504,15.031,22.25725167541504C15.0747,22.37815167541504,15.137,22.472051675415038,15.1682,22.472051675415038C15.2181,22.472051675415038,15.349,22.35125167541504,15.9101,21.80090167541504C15.9662,21.747211675415038,16.0784,21.65325167541504,16.1595,21.59956167541504C16.2343,21.54586167541504,16.3341,21.46532167541504,16.3715,21.43177167541504C16.4089,21.39150167541504,16.6021,21.257261675415037,16.7954,21.13645167541504C17.1633,20.91497167541504,17.4313,20.626371675415037,17.369,20.518991675415037C17.3503,20.48543167541504,17.3129,20.47201167541504,17.2817,20.49214167541504C17.2505,20.51227167541504,17.1882,20.48543167541504,17.1383,20.431731675415037C17.0884,20.37804167541504,17.0323,20.34448167541504,17.0136,20.364621675415037C16.97,20.41831167541504,16.6458,20.22367167541504,16.5149,20.069311675415037C16.359,19.88809167541504,16.4587,19.82769167541504,16.9388,19.81426167541504C17.1445,19.81426167541504,17.4251,19.78742167541504,17.5623,19.767281675415038C17.6994,19.74044167541504,17.8989,19.71359167541504,17.9987,19.70017167541504C18.7406,19.60620167541504,18.9339,19.42499167541504,19.6508,18.15650167541504C20.0935,17.37795167541504,20.2494,17.196731675415037,20.3741,17.310831675415038C20.4239,17.35781167541504,20.4551,17.43164167541504,20.4364,17.478621675415038C20.4115,17.545741675415037,20.4489,17.545741675415037,20.5923,17.492041675415038C20.879,17.38466167541504,22.101,15.78729167541504,22.3068,15.25707167541504C22.4252,14.941631675415039,22.9427,14.082541675415039,23.0799,13.96844167541504C23.2482,13.82750167541504,23.3043,14.102671675415039,23.1858,14.47181167541504C22.9552,15.149691675415038,22.9926,15.20338167541504,23.4913,14.921491675415039C23.6534,14.827531675415038,23.8155,14.753701675415039,23.8529,14.753701675415039C23.9402,14.753701675415039,24.7757,14.028851675415039,24.8505,13.887901675415039C24.8816,13.82750167541504,24.9253,13.767091675415038,24.944,13.746961675415038C24.9627,13.726821675415039,24.9876,13.63957167541504,24.9876,13.545611675415039C25.0063,13.163051675415039,25.0624,12.928142675415039,25.1684,12.80733367541504C25.343,12.59927367541504,25.3929,12.713370675415039,25.3492,13.189891675415039C25.3492,13.189891675415039,25.3056,13.62615167541504,25.3056,13.62615167541504C25.3056,13.62615167541504,25.4864,13.505341675415039,25.4864,13.505341675415039C25.5861,13.43822167541504,25.7295,13.31070167541504,25.8044,13.230161675415038C25.9602,13.055661675415038,26.7458,12.646254675415038,27.0513,12.585850675415038C27.1947,12.55229167541504,27.257,12.57242667541504,27.2819,12.652966675415039C27.3381,12.79391067541504,27.2383,12.90129667541504,26.8331,13.156341675415039C26.3592,13.44494167541504,26.4278,13.377821675415039,24.8629,15.05573167541504C23.3479,16.666511675415038,23.0861,16.921561675415038,22.5374,17.29069167541504C21.9826,17.66655167541504,21.9078,17.76051167541504,21.8267,18.14978167541504C21.7332,18.60617167541504,21.8454,19.46526167541504,21.995,19.404861675415038C22.1135,19.35787167541504,22.737,18.451811675415037,22.7993,18.24375167541504C22.8679,17.98870167541504,23.0113,17.84776167541504,23.404,17.632991675415038C23.6347,17.505471675415038,23.7968,17.36452167541504,23.8592,17.237001675415037C24.0213,16.90142167541504,24.4016,16.525571675415037,24.8255,16.277241675415038C25.05,16.149721675415037,25.2807,15.968511675415039,25.343,15.88125167541504C25.4552,15.72018167541504,25.4552,15.706751675415038,25.3243,15.471851675415039C25.1061,15.07586167541504,25.3056,14.948341675415039,25.6547,15.263791675415039C25.8293,15.41815167541504,25.8854,15.438291675415039,26.1847,15.40473167541504C26.671,15.35104167541504,27.0139,15.102711675415039,27.7932,14.243621675415039C28.1735,13.82079167541504,28.5102,13.47849167541504,28.5538,13.47849167541504C28.5912,13.47849167541504,28.6411,13.41138167541504,28.666,13.330841675415039C28.772,12.954989675415039,29.0837,12.733505675415039,29.1648,12.968412675415038C29.1897,13.042241675415038,29.2645,13.022101675415039,29.5014,12.861026675415038C29.8132,12.652966675415039,29.9379,12.652966675415039,29.9379,12.867738675415039C29.9379,12.99525867541504,29.5389,13.42480167541504,29.4765,13.364401675415039C29.4578,13.337551675415039,29.4391,13.350971675415039,29.4391,13.384531675415039C29.4391,13.418091675415038,29.277,13.545611675415039,29.0775,13.67313167541504C28.8842,13.80065167541504,28.6286,14.028851675415039,28.5102,14.17650167541504C28.1548,14.646321675415038,27.8493,14.981901675415038,27.5999,15.18996167541504C27.4628,15.297341675415039,27.2445,15.505401675415039,27.1074,15.639641675415039C26.9765,15.78058167541504,26.8268,15.89468167541504,26.7832,15.89468167541504C26.7333,15.89468167541504,26.6959,15.92152167541504,26.6959,15.94837167541504C26.6959,15.981931675415039,26.5338,16.01549167541504,26.3405,16.02220167541504C25.9103,16.04233167541504,25.8916,16.04904167541504,25.6236,16.431611675415038C25.5051,16.599401675415038,25.2619,16.84102167541504,25.0749,16.98196167541504C24.6821,17.25714167541504,24.2644,17.69339167541504,24.2644,17.80749167541504C24.2644,17.908161675415037,23.8966,18.24375167541504,23.7844,18.24375167541504C23.7095,18.24375167541504,23.1235,18.76725167541504,23.0986,18.86793167541504C23.03,19.109541675415038,22.8242,19.36459167541504,22.4252,19.71359167541504C22.1634,19.94179167541504,21.9701,20.12300167541504,22.0013,20.12300167541504C22.0262,20.12300167541504,21.9826,20.169981675415038,21.9078,20.23039167541504C21.6895,20.391461675415037,21.4838,20.29750167541504,21.0848,19.86125167541504C20.8915,19.64648167541504,20.5611,19.35116167541504,20.3553,19.19680167541504C20.3553,19.19680167541504,19.9813,18.92162167541504,19.9813,18.92162167541504C19.9813,18.92162167541504,19.8316,19.13639167541504,19.8316,19.13639167541504C19.4451,19.70017167541504,18.8279,20.25723167541504,18.591,20.25723167541504C18.485,20.25723167541504,17.6994,21.09618167541504,17.4999,21.41834167541504C17.45,21.50559167541504,17.3004,21.63983167541504,17.1695,21.706941675415038C16.8266,21.89487167541504,16.1034,22.411651675415037,15.8602,22.639851675415038C15.7418,22.75395167541504,15.5236,23.029151675415036,15.3677,23.26405167541504C14.9999,23.81435167541504,14.925,23.807651675415038,14.3764,23.19695167541504Z" fill="#1570EF" fill-opacity="1"/></g><g><path d="M7.6507628125,16.00843993713379C7.4824328125,15.85406993713379,7.2829328125,15.67285993713379,7.2143528125,15.605739937133789C7.0210728125,15.41109993713379,6.6095928125,15.18961993713379,6.435032812499999,15.18290993713379C5.8988528124999995,15.162769937133788,5.8053428125,15.14263993713379,5.705582812499999,15.02853993713379C5.4936128125,14.786919937133788,5.0010828125,14.417779937133789,4.8888528125,14.417779937133789C4.8265128125,14.417779937133789,4.7454628125,14.384219937133789,4.7018228125,14.33723993713379C4.6581828125,14.29025993713379,4.6270028125,14.283549937133788,4.6270028125,14.31039993713379C4.6270028125,14.377509937133789,4.0658928125,13.894279937133788,3.9536728125,13.73319993713379C3.9100328125,13.666079937133789,3.6855828125,13.45130993713379,3.4549078125,13.24995993713379C2.9000328125,12.77343493713379,2.7067608125,12.55866293713379,2.5571317125,12.249927937133789C2.4636133125,12.048578937133788,2.4511442125,11.968039937133788,2.5072553125,11.894211837133788C2.5696009125,11.820383937133789,2.6444158125,11.86065373713379,2.9374398125,12.122406937133789C3.2741058125,12.437852937133789,3.5858328125,12.672759937133788,3.6606528125,12.672759937133788C3.6793528125,12.672759937133788,3.6232428125,12.551950937133789,3.5359628125,12.40429493713379C3.3551558125,12.095560937133788,3.3426858125,12.00159793713379,3.4736118124999997,12.00159793713379C3.6107728125,12.00159793713379,3.9225028125000003,12.32375593713379,4.1718828125,12.719741937133788C4.3526828125,13.015049937133789,4.8639228125,13.46472993713379,5.0509528125,13.484869937133789C5.075892812499999,13.484869937133789,5.1943528125,13.551979937133789,5.3128028125,13.62580993713379C5.4312628125,13.706349937133789,5.6307728125,13.82715993713379,5.749222812499999,13.907699937133788C5.749222812499999,13.907699937133788,5.9674328125,14.041929937133789,5.9674328125,14.041929937133789C5.9674328125,14.041929937133789,5.7804028125,13.78017993713379,5.7804028125,13.78017993713379C5.6806428125,13.63251993713379,5.3190428125,13.223109937133788,4.9886128124999995,12.860689937133788C4.6519428125,12.504969937133788,4.3776228125,12.17609993713379,4.3776228125,12.135829937133789C4.3776228125,12.08884893713379,4.4337328125,12.00159793713379,4.5023128125,11.93448193713379C4.676882812500001,11.76669093713379,5.1507128125,11.81367233713379,5.5060828125,12.028443937133789C5.6619428124999995,12.122406937133789,5.9300328125,12.223080937133789,6.0983628125,12.243215937133789C6.6158328125,12.32375593713379,7.2517528125,12.853969937133789,7.5634828125,13.478159937133789C7.6881728125,13.73319993713379,7.8191028125,13.887559937133789,7.9812028125,13.98152993713379C8.1557628125,14.082199937133788,8.2305828125,14.182879937133789,8.3053928125,14.417779937133789C8.411382812500001,14.766789937133789,8.5423128125,15.02182993713379,8.6046528125,15.02182993713379C8.6295928125,15.02182993713379,8.735582812499999,14.934579937133789,8.8478028125,14.82047993713379C8.9537928125,14.71308993713379,9.228112812500001,14.51173993713379,9.452552812499999,14.377509937133789C9.9076828125,14.10904993713379,10.0697728125,13.92782993713379,10.400212812500001,13.323789937133789C10.5186628125,13.09558993713379,10.7431128125,12.77343493713379,10.8989728125,12.60564393713379C11.0486028125,12.437852937133789,11.2481128125,12.202946937133788,11.3478628125,12.075425937133788C11.5785428125,11.78011423713379,11.6845328125,11.84051883713379,11.6346528125,12.223080937133789C11.5847728125,12.55866293713379,11.4850228125,12.780145937133788,11.2543428125,13.07545993713379C11.0860128125,13.29693993713379,11.0860128125,13.29693993713379,11.2356428125,13.209689937133788C11.4164428125,13.10901993713379,11.8029828125,12.786857937133789,12.0773028125,12.51839293713379C12.3453928125,12.243215937133789,12.4576128125,12.18952293713379,12.5324328125,12.290197937133788C12.6197328125,12.397583937133788,12.4389128125,12.840549937133789,12.2082328125,13.07545993713379C11.9713228125,13.323789937133789,11.8715628125,13.41103993713379,11.8092228125,13.41103993713379C11.7780428125,13.41103993713379,11.7157028125,13.45801993713379,11.6720628125,13.511709937133789C11.6284128125,13.572119937133788,11.5785428125,13.598959937133788,11.5660728125,13.585539937133788C11.5473628125,13.56540993713379,11.4039728125,13.64594993713379,11.2356428125,13.753329937133788C11.0735428125,13.860719937133789,10.9114428125,13.947969937133788,10.8678028125,13.947969937133788C10.8303928125,13.947969937133788,10.7992228125,13.98152993713379,10.7992228125,14.028509937133789C10.7992228125,14.068779937133788,10.7867528125,14.088909937133788,10.7680428125,14.068779937133788C10.7493428125,14.048639937133789,10.5997128125,14.17615993713379,10.4313828125,14.34394993713379C10.0947128125,14.69295993713379,10.100952812500001,14.68624993713379,9.552302812499999,15.08222993713379C9.327862812500001,15.25001993713379,8.9537928125,15.58559993713379,8.7168728125,15.84064993713379C8.1994128125,16.39770993713379,8.0934228125,16.41112993713379,7.6507628125,16.00843993713379Z" fill="#1570EF" fill-opacity="1"/></g><g><path d="M8.733368725,14.51164052307129C8.633615725,14.377410523071289,8.695961385,14.102230523071288,9.001455125,13.330390523071289C9.356825125,12.424323523071289,9.724663125,11.98135652307129,9.836883125,12.30351452307129C9.899233125,12.471305523071289,9.057566125,14.51164052307129,8.901702125,14.572040523071289C8.851825125,14.592180523071288,8.777010625,14.565330523071289,8.733368725,14.51164052307129Z" fill="#1570EF" fill-opacity="1"/></g></g><g transform="matrix(1,0,0,-1,0,41.249969482421875)"><path d="M14.6123,25.285934741210937C14.6123,25.285934741210937,14.6123,22.289294741210938,14.6123,22.289294741210938C14.6123,22.289294741210938,15.3469,22.289294741210938,15.3469,22.289294741210938C15.3469,22.289294741210938,16.0815,22.289294741210938,16.0815,22.289294741210938C16.0815,22.289294741210938,16.0815,25.285934741210937,16.0815,25.285934741210937C16.0815,25.285934741210937,16.0815,28.28258474121094,16.0815,28.28258474121094C16.0815,28.28258474121094,15.3469,28.28258474121094,15.3469,28.28258474121094C15.3469,28.28258474121094,14.6123,28.28258474121094,14.6123,28.28258474121094C14.6123,28.28258474121094,14.6123,25.285934741210937,14.6123,25.285934741210937ZM0,25.119454741210937C0,25.119454741210937,0,22.289294741210938,0,22.289294741210938C0,22.289294741210938,1.85576,22.289294741210938,1.85576,22.289294741210938C1.85576,22.289294741210938,3.71153,22.289294741210938,3.71153,22.289294741210938C3.71153,22.289294741210938,3.71153,22.955214741210938,3.71153,22.955214741210938C3.71153,22.955214741210938,3.71153,23.621134741210938,3.71153,23.621134741210938C3.71153,23.621134741210938,2.629,23.621134741210938,2.629,23.621134741210938C2.629,23.621134741210938,1.54647,23.621134741210938,1.54647,23.621134741210938C1.54647,23.621134741210938,1.54647,24.037334741210937,1.54647,24.037334741210937C1.54647,24.037334741210937,1.54647,24.453534741210937,1.54647,24.453534741210937C1.54647,24.453534741210937,2.47435,24.453534741210937,2.47435,24.453534741210937C2.47435,24.453534741210937,3.40223,24.453534741210937,3.40223,24.453534741210937C3.40223,24.453534741210937,3.40223,25.16107474121094,3.40223,25.16107474121094C3.40223,25.16107474121094,3.40223,25.868624741210937,3.40223,25.868624741210937C3.40223,25.868624741210937,2.47435,25.868624741210937,2.47435,25.868624741210937C2.47435,25.868624741210937,1.54647,25.868624741210937,1.54647,25.868624741210937C1.54647,25.868624741210937,1.54647,26.24320474121094,1.54647,26.24320474121094C1.54647,26.24320474121094,1.54647,26.617784741210937,1.54647,26.617784741210937C1.54647,26.617784741210937,2.59034,26.617784741210937,2.59034,26.617784741210937C2.59034,26.617784741210937,3.63421,26.617784741210937,3.63421,26.617784741210937C3.63421,26.617784741210937,3.63421,27.283704741210936,3.63421,27.283704741210936C3.63421,27.283704741210936,3.63421,27.949624741210936,3.63421,27.949624741210936C3.63421,27.949624741210936,1.8171,27.949624741210936,1.8171,27.949624741210936C1.8171,27.949624741210936,0,27.949624741210936,0,27.949624741210936C0,27.949624741210936,0,25.119454741210937,0,25.119454741210937ZM11.0935,26.568334741210936C10.9234,26.50174474121094,10.7532,26.410184741210937,10.7146,26.36856474121094C10.5909,26.235374741210936,10.4594,26.276994741210938,10.413,26.451804741210935C10.3744,26.601634741210937,10.3048,26.618284741210935,9.82536,26.618284741210935C9.82536,26.618284741210935,9.27637,26.618284741210935,9.27637,26.618284741210935C9.27637,26.618284741210935,9.27637,23.621634741210936,9.27637,23.621634741210936C9.27637,23.621634741210936,9.27637,20.624984741210938,9.27637,20.624984741210938C9.27637,20.624984741210938,10.0109,20.624984741210938,10.0109,20.624984741210938C10.0109,20.624984741210938,10.7455,20.624984741210938,10.7455,20.624984741210938C10.7455,20.624984741210938,10.7455,21.540627741210937,10.7455,21.540627741210937C10.7455,21.540627741210937,10.7455,22.464594741210938,10.7455,22.464594741210938C10.7455,22.464594741210938,11.0007,22.314764741210936,11.0007,22.314764741210936C11.1708,22.214874741210938,11.426,22.173254741210936,11.828,22.173254741210936C12.725,22.173254741210936,13.3127,22.531184741210936,13.707,23.33029474121094C13.8462,23.596664741210937,13.8771,23.80476474121094,13.8771,24.412414741210938C13.8771,25.08666474121094,13.8539,25.203194741210936,13.6451,25.61107474121094C13.39,26.118844741210935,13.0884,26.39353474121094,12.609,26.576664741210937C12.1915,26.734814741210936,11.5033,26.72649474121094,11.0935,26.568334741210936ZM11.9904,25.236494741210937C12.6631,24.86191474121094,12.4853,23.67157474121094,11.7353,23.50509474121094C11.4337,23.438504741210938,10.9775,23.67157474121094,10.846,23.954594741210936C10.4517,24.803644741210938,11.2172,25.66934474121094,11.9904,25.236494741210937ZM18.3608,26.585834741210938C17.6185,26.336114741210938,17.0849,25.811694741210935,16.9225,25.187394741210937C16.5978,23.89717474121094,17.1932,22.60694474121094,18.268,22.27398474121094C18.817,22.10750474121094,19.768,22.149124741210937,20.232,22.365554741210936C21.6393,23.031474741210936,21.9176,25.187394741210937,20.7269,26.17795474121094C20.1469,26.660744741210937,19.1108,26.84387474121094,18.3608,26.585834741210938ZM19.4665,25.278964741210938C20.2243,24.995944741210938,20.1083,23.714044741210937,19.3118,23.50594474121094C19.0412,23.439354741210938,18.6159,23.622474741210937,18.4458,23.880524741210937C18.268,24.163544741210938,18.2834,24.712924741210937,18.4845,24.987614741210937C18.7474,25.353874741210937,19.0412,25.437114741210937,19.4665,25.278964741210938ZM26.8447,26.552244741210938C25.8395,26.161014741210938,25.3523,25.212084741210937,25.5302,23.99677474121094C25.6384,23.230964741210936,26.0328,22.68990474121094,26.7132,22.365264741210936C27.0148,22.215434741210938,27.2468,22.173814741210936,27.7571,22.173814741210936C28.4839,22.173814741210936,28.8937,22.315324741210937,29.3654,22.74817474121094C29.5819,22.939624741210938,29.9221,23.505654741210936,29.9221,23.66381474121094C29.9221,23.688784741210938,29.6129,23.705434741210937,29.2417,23.705434741210937C28.7159,23.705434741210937,28.4917,23.672134741210936,28.2597,23.538954741210937C28.0896,23.44738474121094,27.8653,23.372474741210937,27.7571,23.372474741210937C27.4942,23.372474741210937,27.0921,23.647164741210936,27.038,23.863584741210936C26.9993,24.038394741210936,27.0148,24.038394741210936,28.4994,24.038394741210936C28.4994,24.038394741210936,29.9995,24.038394741210936,29.9995,24.038394741210936C29.9995,24.038394741210936,29.9995,24.412974741210938,29.9995,24.412974741210938C29.9995,25.25370474121094,29.5587,26.061134741210935,28.886,26.427384741210936C28.3525,26.72705474121094,27.4401,26.776994741210938,26.8447,26.552244741210938ZM28.2133,25.328614741210938C28.337,25.262024741210936,28.453,25.153814741210937,28.4762,25.078894741210938C28.5226,24.97068474121094,28.4221,24.954034741210936,27.7958,24.954034741210936C27.3937,24.954034741210936,27.0612,24.987334741210937,27.0612,25.02895474121094C27.0612,25.070574741210937,27.154,25.187104741210938,27.2622,25.27867474121094C27.5019,25.486774741210937,27.904,25.50342474121094,28.2133,25.328614741210938ZM4.17498,26.57616474121094C4.17498,26.55119474121094,4.45334,26.07672474121094,4.8013,25.527334741210936C5.14152,24.977954741210937,5.40442,24.470184741210936,5.38123,24.411914741210936C5.35803,24.345324741210938,5.0642,23.845884741210938,4.71624,23.288174741210938C4.71624,23.288174741210938,4.09766,22.289294741210938,4.09766,22.289294741210938C4.09766,22.289294741210938,4.97141,22.289294741210938,4.97141,22.289294741210938C4.97141,22.289294741210938,5.84517,22.289294741210938,5.84517,22.289294741210938C5.84517,22.289294741210938,6.12353,22.79705474121094,6.12353,22.79705474121094C6.12353,22.79705474121094,6.39416,23.304824741210936,6.39416,23.304824741210936C6.39416,23.304824741210936,6.64933,22.830354741210936,6.64933,22.830354741210936C6.78851,22.57230474121094,6.94316,22.339234741210937,6.98956,22.32258474121094C7.04368,22.29761474121094,7.43803,22.29761474121094,7.87104,22.305934741210937C7.87104,22.305934741210937,8.65974,22.330914741210936,8.65974,22.330914741210936C8.65974,22.330914741210936,7.99476,23.396384741210937,7.99476,23.396384741210937C7.99476,23.396384741210937,7.32978,24.470184741210936,7.32978,24.470184741210936C7.32978,24.470184741210936,7.9561,25.485714741210938,7.9561,25.485714741210938C8.30406,26.043424741210938,8.58242,26.526214741210936,8.58242,26.559514741210936C8.58242,26.592814741210937,8.219,26.617784741210937,7.77052,26.617784741210937C7.77052,26.617784741210937,6.95863,26.617784741210937,6.95863,26.617784741210937C6.95863,26.617784741210937,6.74212,26.234874741210938,6.74212,26.234874741210938C6.37097,25.55230474121094,6.4019,25.560634741210936,6.10807,26.11001474121094C6.10807,26.11001474121094,5.83744,26.617784741210937,5.83744,26.617784741210937C5.83744,26.617784741210937,5.01007,26.617784741210937,5.01007,26.617784741210937C4.54613,26.617784741210937,4.17498,26.601134741210938,4.17498,26.57616474121094ZM22.1914,24.453534741210937C22.1914,24.453534741210937,22.1914,22.289294741210938,22.1914,22.289294741210938C22.1914,22.289294741210938,22.926,22.289294741210938,22.926,22.289294741210938C22.926,22.289294741210938,23.6606,22.289294741210938,23.6606,22.289294741210938C23.6606,22.289294741210938,23.6606,23.229904741210937,23.6606,23.229904741210937C23.6606,24.761524741210938,23.8461,25.119454741210937,24.6348,25.119454741210937C24.6348,25.119454741210937,25.0524,25.119454741210937,25.0524,25.119454741210937C25.0524,25.119454741210937,25.0524,25.868624741210937,25.0524,25.868624741210937C25.0524,25.868624741210937,25.0524,26.617784741210937,25.0524,26.617784741210937C25.0524,26.617784741210937,24.7663,26.617784741210937,24.7663,26.617784741210937C24.3333,26.60945474121094,23.8925,26.484594741210937,23.6528,26.293144741210938C23.6528,26.293144741210938,23.444,26.126664741210938,23.444,26.126664741210938C23.444,26.126664741210938,23.359,26.368064741210937,23.359,26.368064741210937C23.2817,26.60945474121094,23.2739,26.617784741210937,22.7404,26.617784741210937C22.7404,26.617784741210937,22.1914,26.617784741210937,22.1914,26.617784741210937C22.1914,26.617784741210937,22.1914,24.453534741210937,22.1914,24.453534741210937Z" fill="#1570EF" fill-opacity="1"/></g></g></svg>