<svg xmlns="http://www.w3.org/2000/svg" xmlns:xlink="http://www.w3.org/1999/xlink" fill="none" version="1.1" width="58.005859375" height="42" viewBox="0 0 58.005859375 42"><g><g transform="matrix(1,0,0,-1,0,65.49922943115234)"><path d="M54.27757042236328,51.69711471557618C53.62357042236329,51.32271471557617,52.349970422363285,50.233614715576174,51.48947042236328,49.28071471557617C50.38797042236328,48.12351471557617,49.699470422363284,47.61301471557617,49.25207042236328,47.71511471557617C48.90787042236328,47.78321471557617,48.63247042236328,48.02141471557617,48.66687042236328,48.22561471557617C48.70127042236328,48.42981471557617,48.42597042236328,48.87231471557617,48.08167042236328,49.178614715576174C47.46217042236328,49.72311471557617,47.39327042236328,49.72311471557617,47.18677042236328,49.21261471557617C47.08347042236328,48.90631471557617,46.77369042236328,48.66811471557617,46.49832042236328,48.66811471557617C46.25737042236328,48.66811471557617,46.11968042236328,48.87231471557617,46.22295042236328,49.14451471557617C46.32621042236328,49.41681471557617,46.11968042236328,49.791214715576174,45.70662042236328,49.995414715576175C44.81167042236328,50.50591471557617,44.63956042236328,50.471914715576176,44.63956042236328,49.82521471557617C44.63956042236328,49.246714715576175,44.260920422363284,49.31471471557617,41.369510422363284,50.36981471557617C38.82232042236328,51.28871471557618,37.92737042236328,51.424814715576176,37.27335742236328,50.948314715576174C36.72261342236328,50.539914715576174,36.75703442236328,50.471914715576176,37.65199342236328,50.02941471557617C38.16832042236328,49.75721471557617,38.99443042236328,49.28071471557617,39.47633042236328,48.974414715576174C42.43658042236328,47.00041471557617,45.327990422363285,45.264714715576176,45.60336042236328,45.264714715576176C45.775470422363284,45.264714715576176,46.154100422363285,44.992414715576174,46.49832042236328,44.652114715576175C47.01467042236328,44.039514715576175,46.94577042236328,43.869314715576174,45.29357042236328,41.65711471557617C44.32976042236328,40.36382471557617,43.400380422363284,39.03650471557617,43.228280422363284,38.73020471557617C42.98733042236328,38.287764715576174,42.36774042236328,38.117594715576175,40.57782042236328,38.04952471557617C40.57782042236328,38.04952471557617,38.27158042236328,37.94742471557617,38.27158042236328,37.94742471557617C38.27158042236328,37.94742471557617,39.92381042236328,37.16464471557617,39.92381042236328,37.16464471557617C41.33509042236328,36.51800471557617,41.54162042236328,36.27976471557617,41.33509042236328,35.667154715576174C41.16299042236328,35.08857471557617,41.23183042236328,34.98647471557617,41.713730422363284,35.19068471557617C42.36774042236328,35.42891471557617,43.606910422363285,34.57807471557617,43.606910422363285,33.863364715576175C43.606910422363285,33.62512271557617,43.84786042236328,33.21671671557617,44.19208042236328,32.97847971557617C44.70840042236328,32.53603871557617,44.74282042236328,32.672174515576174,44.53629042236328,34.71420471557617C44.53629042236328,34.71420471557617,44.32976042236328,36.92640471557617,44.32976042236328,36.92640471557617C44.32976042236328,36.92640471557617,46.98027042236328,39.37684471557617,46.98027042236328,39.37684471557617C46.98027042236328,39.37684471557617,49.63067042236328,41.79324471557617,49.63067042236328,41.79324471557617C49.63067042236328,41.79324471557617,50.31907042236328,41.07853471557617,50.31907042236328,41.07853471557617C50.73217042236328,40.67013471557617,52.28117042236328,38.79827471557617,53.76127042236328,36.92640471557617C57.44437042236328,32.365869715576174,57.37547042236328,32.43393771557617,57.75417042236328,33.04654671557617C58.20167042236328,33.76125471557617,58.167170422363284,33.99949471557617,56.68707042236328,36.892374715576175C55.48237042236328,39.342814715576175,55.379070422363284,39.68315471557617,55.82657042236328,40.15962471557617C56.308470422363285,40.67013471557617,56.27407042236328,40.772234715576175,55.757670422363276,41.248704715576174C55.41347042236328,41.52097471557617,54.93157042236328,41.69114471557617,54.72507042236328,41.62308471557617C54.10547042236328,41.41887471557617,54.17427042236328,41.86131471557617,54.793870422363284,42.54199471557617C55.27577042236328,43.08651471557617,55.24137042236328,43.18861471557617,54.10547042236328,43.69911471557617C53.451470422363286,44.00541471557617,52.900670422363284,44.447914715576175,52.900670422363284,44.652114715576175C52.900670422363284,44.82221471557617,53.69237042236328,45.97941471557617,54.69067042236328,47.20461471557617C56.136370422363285,49.04241471557617,56.480570422363286,49.655114715576175,56.480570422363286,50.812214715576175C56.51497042236328,52.51391471557617,55.99867042236328,52.71811471557617,54.27757042236328,51.69711471557618Z" fill="#1E1E1E" fill-opacity="1"/></g><g transform="matrix(1,0,0,-1,0,81.41697692871094)"><path d="M3.9489057064056396,56.61048846435547C3.9489057064056396,55.308588464355466,7.42959570640564,49.07797846435547,9.028825706405641,47.40407846435547C12.93284570640564,43.49831846435547,19.37680570640564,40.70848846435547,24.45670570640564,40.70848846435547C28.97220570640564,40.70848846435547,37.01540570640564,43.87029846435547,39.22610570640564,46.56712846435547C39.74360570640564,47.12509846435547,39.64950570640564,47.450578464355466,38.75580570640564,48.38051846435547C38.75580570640564,48.38051846435547,37.67400570640564,49.49644846435547,37.67400570640564,49.49644846435547C37.67400570640564,49.49644846435547,35.27510570640564,47.54356846435547,35.27510570640564,47.54356846435547C25.58560570640564,39.54605846435547,11.38064570640564,42.61486846435547,5.595175706405639,53.96018846435547C4.70148670640564,55.77358846435547,3.9489057064056396,56.93598846435547,3.9489057064056396,56.61048846435547Z" fill="#1E1E1E" fill-opacity="1"/></g><g><path d="M46.00436904859543,0C43.03056904859543,0,35.10416904859543,0,33.650669048595425,0C33.50366904859543,0,33.36176904859543,0.0667181,33.26506904859543,0.177419C32.15206904859543,1.45205,25.36996904859543,9.21919,23.65936904859543,11.1782C23.45566904859543,11.4115,23.08356904859543,11.4129,22.881369048595428,11.1782C21.19296904859543,9.21919,14.498969048595429,1.45205,13.400369048595428,0.177419C13.30366904859543,0.065224,13.162769048595429,0,13.014669048595428,0C11.547169048595428,0,3.5444990485954286,0,0.5421550485954285,0C0.10534504859542847,0,-0.16917495140457153,0.490386,0.11775504859542847,0.819738C3.0480190485954286,4.18324,14.086769048595428,16.8541,16.047269048595428,19.1044C16.215169048595428,19.2972,16.22216904859543,19.587,16.05276904859543,19.7784C14.257769048595428,21.8066,4.682609048595428,32.6253,0.27896004859542844,37.6009C-0.10836495140457153,38.0386,0.42737804859542844,38.5654,0.9054820485954285,38.2293C6.578449048595428,34.2414,11.85086904859543,29.3017,13.219169048595429,30.0861C14.370269048595429,30.7461,16.43976904859543,32.3367,17.54566904859543,33.323C17.76196904859543,33.5159,18.09686904859543,33.5013,18.28886904859543,33.2842C20.237869048595428,31.0803,23.102669048595427,27.6199,23.20186904859543,27.5806C23.33376904859543,27.5285,24.97476904859543,29.8776,25.30436904859543,30.0861C25.63396904859543,30.2947,28.014169048595427,25.7745,30.18966904859543,25.9309C31.930069048595428,26.0561,35.97406904859543,29.2376,37.79136904859543,31.1326C40.75786904859543,34.2261,47.43526904859543,40.5211,48.91196904859543,41.397C50.302869048595426,42.222,49.97036904859543,42.0325,49.57816904859543,41.8044C49.529769048595426,41.7762,49.48766904859543,41.7416,49.450969048595425,41.6992C48.41336904859543,40.5004,32.830269048595426,22.4978,30.48446904859543,19.7877C30.31846904859543,19.596,30.308069048595428,19.3113,30.474669048595427,19.1201C32.39686904859543,16.9137,43.48076904859543,4.19114,46.41786904859543,0.819738C46.70486904859543,0.490386,46.44116904859543,0,46.00436904859543,0" fill="#0872BF" fill-opacity="1"/></g></g></svg>